<svg width="1632" height="800" viewBox="0 0 1632 800" fill="none" xmlns="http://www.w3.org/2000/svg">
<path d="M116.667 150L16.6667 83.3333L116.667 16.6667H350L450 83.3333L350 150H116.667Z" stroke="#CAF871" stroke-width="33.3333" stroke-miterlimit="10" stroke-linejoin="round"/>
<path d="M450 83.3333V233.333L233.333 400L16.6667 233.333V83.3333" stroke="#CAF871" stroke-width="33.3333" stroke-miterlimit="10" stroke-linejoin="round"/>
<path d="M16.6667 716.667V566.667L233.333 400L450 566.667V716.667L350 783.333H116.667L16.6667 716.667Z" stroke="#CAF871" stroke-width="33.3333" stroke-miterlimit="10" stroke-linejoin="round"/>
<path d="M316.667 233.333L233.333 300L150 233.333" stroke="#CAF871" stroke-width="33.3333" stroke-miterlimit="10" stroke-linecap="round" stroke-linejoin="round"/>
<path d="M383.333 683.333H333.333L233.333 633.333L133.333 683.333H83.3333" stroke="#CAF871" stroke-width="33.3333" stroke-miterlimit="10" stroke-linecap="round" stroke-linejoin="round"/>
<path d="M233.333 500V533.333" stroke="#CAF871" stroke-width="33.3333" stroke-miterlimit="10" stroke-linecap="round" stroke-linejoin="round"/>
<path d="M233.333 600V633.333" stroke="#CAF871" stroke-width="33.3333" stroke-miterlimit="10" stroke-linecap="round" stroke-linejoin="round"/>
<path d="M712.985 185.485C711.28 171.091 704.367 159.917 692.246 151.962C680.125 144.008 665.258 140.03 647.644 140.03C634.765 140.03 623.496 142.114 613.837 146.28C604.273 150.447 596.792 156.176 591.394 163.468C586.091 170.759 583.439 179.045 583.439 188.326C583.439 196.091 585.286 202.767 588.979 208.354C592.767 213.847 597.597 218.439 603.468 222.133C609.339 225.731 615.494 228.714 621.934 231.081C628.373 233.354 634.292 235.201 639.689 236.621L669.235 244.576C676.811 246.564 685.239 249.311 694.519 252.814C703.894 256.318 712.843 261.1 721.366 267.161C729.983 273.127 737.085 280.797 742.672 290.172C748.259 299.547 751.053 311.053 751.053 324.689C751.053 340.409 746.934 354.614 738.695 367.303C730.551 379.992 718.619 390.078 702.9 397.559C687.275 405.04 668.288 408.78 645.939 408.78C625.106 408.78 607.066 405.419 591.82 398.695C576.669 391.972 564.737 382.597 556.025 370.57C547.407 358.544 542.53 344.576 541.394 328.667H577.758C578.705 339.652 582.398 348.742 588.837 355.939C595.371 363.042 603.61 368.345 613.553 371.848C623.591 375.258 634.386 376.962 645.939 376.962C659.386 376.962 671.46 374.784 682.161 370.428C692.862 365.977 701.337 359.822 707.587 351.962C713.837 344.008 716.962 334.727 716.962 324.121C716.962 314.462 714.263 306.602 708.866 300.542C703.468 294.481 696.366 289.557 687.559 285.769C678.752 281.981 669.235 278.667 659.008 275.826L623.212 265.598C600.485 259.064 582.492 249.737 569.235 237.616C555.977 225.494 549.348 209.633 549.348 190.03C549.348 173.742 553.752 159.538 562.559 147.417C571.46 135.201 583.392 125.731 598.354 119.008C613.411 112.189 630.22 108.78 648.78 108.78C667.53 108.78 684.197 112.142 698.78 118.866C713.364 125.494 724.917 134.585 733.439 146.138C742.057 157.691 746.602 170.807 747.076 185.485H712.985ZM837.949 272.417V403.667H804.427V112.758H837.949V219.576H840.79C845.904 208.307 853.574 199.358 863.802 192.729C874.124 186.006 887.855 182.644 904.995 182.644C919.862 182.644 932.883 185.627 944.057 191.593C955.232 197.464 963.896 206.508 970.052 218.723C976.302 230.845 979.427 246.28 979.427 265.03V403.667H945.904V267.303C945.904 249.973 941.406 236.574 932.41 227.104C923.508 217.54 911.15 212.758 895.336 212.758C884.351 212.758 874.502 215.078 865.79 219.718C857.173 224.358 850.355 231.129 845.336 240.03C840.411 248.932 837.949 259.727 837.949 272.417ZM1132.23 408.212C1111.21 408.212 1093.07 403.572 1077.83 394.292C1062.68 384.917 1050.98 371.848 1042.74 355.087C1034.6 338.231 1030.53 318.629 1030.53 296.28C1030.53 273.932 1034.6 254.235 1042.74 237.189C1050.98 220.049 1062.44 206.697 1077.12 197.133C1091.89 187.473 1109.13 182.644 1128.82 182.644C1140.19 182.644 1151.41 184.538 1162.49 188.326C1173.57 192.114 1183.65 198.269 1192.74 206.792C1201.83 215.22 1209.08 226.394 1214.48 240.314C1219.87 254.235 1222.57 271.375 1222.57 291.735V305.939H1054.39V276.962H1188.48C1188.48 264.652 1186.02 253.667 1181.1 244.008C1176.27 234.348 1169.35 226.725 1160.36 221.138C1151.46 215.551 1140.94 212.758 1128.82 212.758C1115.47 212.758 1103.92 216.072 1094.16 222.701C1084.5 229.235 1077.07 237.758 1071.86 248.269C1066.65 258.78 1064.05 270.049 1064.05 282.076V301.394C1064.05 317.871 1066.89 331.839 1072.57 343.297C1078.35 354.661 1086.35 363.326 1096.58 369.292C1106.81 375.163 1118.69 378.098 1132.23 378.098C1141.04 378.098 1148.99 376.867 1156.1 374.405C1163.29 371.848 1169.5 368.061 1174.7 363.042C1179.91 357.928 1183.94 351.583 1186.78 344.008L1219.16 353.098C1215.75 364.083 1210.03 373.742 1201.98 382.076C1193.93 390.314 1183.98 396.754 1172.15 401.394C1160.31 405.939 1147 408.212 1132.23 408.212ZM1307.09 112.758V403.667H1273.57V112.758H1307.09ZM1465.65 185.485V213.894H1348.03V185.485H1465.65ZM1383.26 403.667V155.371C1383.26 142.871 1386.2 132.455 1392.07 124.121C1397.94 115.788 1405.56 109.538 1414.94 105.371C1424.31 101.205 1434.21 99.1212 1444.63 99.1212C1452.86 99.1212 1459.59 99.7841 1464.8 101.11C1470 102.436 1473.89 103.667 1476.44 104.803L1466.78 133.78C1465.08 133.212 1462.71 132.502 1459.68 131.65C1456.75 130.797 1452.86 130.371 1448.03 130.371C1436.96 130.371 1428.95 133.165 1424.03 138.752C1419.2 144.339 1416.78 152.53 1416.78 163.326V403.667H1383.26Z" fill="white"/>
<path d="M553.894 772.667V481.758H589.121V741.417H724.348V772.667H553.894ZM774.348 772.667V554.485H807.871V772.667H774.348ZM791.394 518.121C784.86 518.121 779.225 515.896 774.491 511.445C769.85 506.994 767.53 501.644 767.53 495.394C767.53 489.144 769.85 483.794 774.491 479.343C779.225 474.892 784.86 472.667 791.394 472.667C797.928 472.667 803.515 474.892 808.155 479.343C812.89 483.794 815.258 489.144 815.258 495.394C815.258 501.644 812.89 506.994 808.155 511.445C803.515 515.896 797.928 518.121 791.394 518.121ZM966.429 554.485V582.894H848.816V554.485H966.429ZM884.043 772.667V524.371C884.043 511.871 886.979 501.455 892.85 493.121C898.721 484.788 906.344 478.538 915.719 474.371C925.094 470.205 934.99 468.121 945.407 468.121C953.645 468.121 960.369 468.784 965.577 470.11C970.786 471.436 974.668 472.667 977.225 473.803L967.566 502.78C965.861 502.212 963.494 501.502 960.464 500.65C957.528 499.797 953.645 499.371 948.816 499.371C937.736 499.371 929.734 502.165 924.81 507.752C919.981 513.339 917.566 521.53 917.566 532.326V772.667H884.043ZM1095.9 777.212C1074.88 777.212 1056.75 772.572 1041.5 763.292C1026.35 753.917 1014.65 740.848 1006.42 724.087C998.271 707.231 994.199 687.629 994.199 665.28C994.199 642.932 998.271 623.235 1006.42 606.189C1014.65 589.049 1026.11 575.697 1040.79 566.133C1055.56 556.473 1072.8 551.644 1092.49 551.644C1103.86 551.644 1115.08 553.538 1126.16 557.326C1137.24 561.114 1147.32 567.269 1156.42 575.792C1165.51 584.22 1172.75 595.394 1178.15 609.314C1183.55 623.235 1186.24 640.375 1186.24 660.735V674.939H1018.06V645.962H1152.15C1152.15 633.652 1149.69 622.667 1144.77 613.008C1139.94 603.348 1133.03 595.725 1124.03 590.138C1115.13 584.551 1104.62 581.758 1092.49 581.758C1079.14 581.758 1067.59 585.072 1057.84 591.701C1048.18 598.235 1040.74 606.758 1035.53 617.269C1030.33 627.78 1027.72 639.049 1027.72 651.076V670.394C1027.72 686.871 1030.56 700.839 1036.24 712.297C1042.02 723.661 1050.02 732.326 1060.25 738.292C1070.48 744.163 1082.36 747.098 1095.9 747.098C1104.71 747.098 1112.67 745.867 1119.77 743.405C1126.96 740.848 1133.17 737.061 1138.38 732.042C1143.58 726.928 1147.61 720.583 1150.45 713.008L1182.84 722.098C1179.43 733.083 1173.7 742.742 1165.65 751.076C1157.6 759.314 1147.66 765.754 1135.82 770.394C1123.98 774.939 1110.68 777.212 1095.9 777.212Z" fill="white"/>
</svg>
